<svg xmlns="http://www.w3.org/2000/svg" width="920" height="560" viewBox="0 0 920 560">
<style>
text { font-family: -apple-system, BlinkMacSystemFont, 'Segoe UI', sans-serif; fill: #1f2933; }
.title { font-size: 22px; font-weight: 700; }
.label { font-size: 13px; }
.small { font-size: 11px; fill: #52616b; }
.axis { stroke: #2f3a45; stroke-width: 1.2; }
.grid { stroke: #d8dee6; stroke-width: 1; }
.legend { font-size: 12px; }
</style>
<text class="title" x="82" y="38">Update coefficient for a positive-advantage token</text>
<line class="axis" x1="82" y1="482" x2="886" y2="482"/>
<line class="axis" x1="82" y1="72" x2="82" y2="482"/>
<line class="grid" x1="82" y1="482.00" x2="886" y2="482.00"/>
<text class="small" x="72" y="486.00" text-anchor="end">0.00</text>
<line class="grid" x1="82" y1="400.00" x2="886" y2="400.00"/>
<text class="small" x="72" y="404.00" text-anchor="end">0.27</text>
<line class="grid" x1="82" y1="318.00" x2="886" y2="318.00"/>
<text class="small" x="72" y="322.00" text-anchor="end">0.54</text>
<line class="grid" x1="82" y1="236.00" x2="886" y2="236.00"/>
<text class="small" x="72" y="240.00" text-anchor="end">0.81</text>
<line class="grid" x1="82" y1="154.00" x2="886" y2="154.00"/>
<text class="small" x="72" y="158.00" text-anchor="end">1.08</text>
<line class="grid" x1="82" y1="72.00" x2="886" y2="72.00"/>
<text class="small" x="72" y="76.00" text-anchor="end">1.35</text>
<line class="grid" x1="82.00" y1="72" x2="82.00" y2="482"/>
<text class="small" x="82.00" y="505" text-anchor="middle">0.0</text>
<line class="grid" x1="216.00" y1="72" x2="216.00" y2="482"/>
<text class="small" x="216.00" y="505" text-anchor="middle">0.5</text>
<line class="grid" x1="350.00" y1="72" x2="350.00" y2="482"/>
<text class="small" x="350.00" y="505" text-anchor="middle">1.0</text>
<line class="grid" x1="484.00" y1="72" x2="484.00" y2="482"/>
<text class="small" x="484.00" y="505" text-anchor="middle">1.5</text>
<line class="grid" x1="618.00" y1="72" x2="618.00" y2="482"/>
<text class="small" x="618.00" y="505" text-anchor="middle">2.0</text>
<line class="grid" x1="752.00" y1="72" x2="752.00" y2="482"/>
<text class="small" x="752.00" y="505" text-anchor="middle">2.5</text>
<line class="grid" x1="886.00" y1="72" x2="886.00" y2="482"/>
<text class="small" x="886.00" y="505" text-anchor="middle">3.0</text>
<line x1="296.40" y1="72" x2="296.40" y2="482" stroke="#8b98a8" stroke-width="1" stroke-dasharray="4 5"/>
<text class="small" x="301.40" y="90">1-eps</text>
<line x1="403.60" y1="72" x2="403.60" y2="482" stroke="#8b98a8" stroke-width="1" stroke-dasharray="4 5"/>
<text class="small" x="408.60" y="90">1+eps</text>
<polyline points="84.68,478.96 87.36,475.93 90.04,472.89 92.72,469.85 95.40,466.81 98.08,463.78 100.76,460.74 103.44,457.70 106.12,454.67 108.80,451.63 111.48,448.59 114.16,445.56 116.84,442.52 119.52,439.48 122.20,436.44 124.88,433.41 127.56,430.37 130.24,427.33 132.92,424.30 135.60,421.26 138.28,418.22 140.96,415.19 143.64,412.15 146.32,409.11 149.00,406.07 151.68,403.04 154.36,400.00 157.04,396.96 159.72,393.93 162.40,390.89 165.08,387.85 167.76,384.81 170.44,381.78 173.12,378.74 175.80,375.70 178.48,372.67 181.16,369.63 183.84,366.59 186.52,363.56 189.20,360.52 191.88,357.48 194.56,354.44 197.24,351.41 199.92,348.37 202.60,345.33 205.28,342.30 207.96,339.26 210.64,336.22 213.32,333.19 216.00,330.15 218.68,327.11 221.36,324.07 224.04,321.04 226.72,318.00 229.40,314.96 232.08,311.93 234.76,308.89 237.44,305.85 240.12,302.81 242.80,299.78 245.48,296.74 248.16,293.70 250.84,290.67 253.52,287.63 256.20,284.59 258.88,281.56 261.56,278.52 264.24,275.48 266.92,272.44 269.60,269.41 272.28,266.37 274.96,263.33 277.64,260.30 280.32,257.26 283.00,254.22 285.68,251.19 288.36,248.15 291.04,245.11 293.72,242.07 296.40,239.04 299.08,236.00 301.76,232.96 304.44,229.93 307.12,226.89 309.80,223.85 312.48,220.81 315.16,217.78 317.84,214.74 320.52,211.70 323.20,208.67 325.88,205.63 328.56,202.59 331.24,199.56 333.92,196.52 336.60,193.48 339.28,190.44 341.96,187.41 344.64,184.37 347.32,181.33 350.00,178.30 352.68,175.26 355.36,172.22 358.04,169.19 360.72,166.15 363.40,163.11 366.08,160.07 368.76,157.04 371.44,154.00 374.12,150.96 376.80,147.93 379.48,144.89 382.16,141.85 384.84,138.81 387.52,135.78 390.20,132.74 392.88,129.70 395.56,126.67 398.24,123.63 400.92,120.59 403.60,117.56 406.28,482.00 408.96,482.00 411.64,482.00 414.32,482.00 417.00,482.00 419.68,482.00 422.36,482.00 425.04,482.00 427.72,482.00 430.40,482.00 433.08,482.00 435.76,482.00 438.44,482.00 441.12,482.00 443.80,482.00 446.48,482.00 449.16,482.00 451.84,482.00 454.52,482.00 457.20,482.00 459.88,482.00 462.56,482.00 465.24,482.00 467.92,482.00 470.60,482.00 473.28,482.00 475.96,482.00 478.64,482.00 481.32,482.00 484.00,482.00 486.68,482.00 489.36,482.00 492.04,482.00 494.72,482.00 497.40,482.00 500.08,482.00 502.76,482.00 505.44,482.00 508.12,482.00 510.80,482.00 513.48,482.00 516.16,482.00 518.84,482.00 521.52,482.00 524.20,482.00 526.88,482.00 529.56,482.00 532.24,482.00 534.92,482.00 537.60,482.00 540.28,482.00 542.96,482.00 545.64,482.00 548.32,482.00 551.00,482.00 553.68,482.00 556.36,482.00 559.04,482.00 561.72,482.00 564.40,482.00 567.08,482.00 569.76,482.00 572.44,482.00 575.12,482.00 577.80,482.00 580.48,482.00 583.16,482.00 585.84,482.00 588.52,482.00 591.20,482.00 593.88,482.00 596.56,482.00 599.24,482.00 601.92,482.00 604.60,482.00 607.28,482.00 609.96,482.00 612.64,482.00 615.32,482.00 618.00,482.00 620.68,482.00 623.36,482.00 626.04,482.00 628.72,482.00 631.40,482.00 634.08,482.00 636.76,482.00 639.44,482.00 642.12,482.00 644.80,482.00 647.48,482.00 650.16,482.00 652.84,482.00 655.52,482.00 658.20,482.00 660.88,482.00 663.56,482.00 666.24,482.00 668.92,482.00 671.60,482.00 674.28,482.00 676.96,482.00 679.64,482.00 682.32,482.00 685.00,482.00 687.68,482.00 690.36,482.00 693.04,482.00 695.72,482.00 698.40,482.00 701.08,482.00 703.76,482.00 706.44,482.00 709.12,482.00 711.80,482.00 714.48,482.00 717.16,482.00 719.84,482.00 722.52,482.00 725.20,482.00 727.88,482.00 730.56,482.00 733.24,482.00 735.92,482.00 738.60,482.00 741.28,482.00 743.96,482.00 746.64,482.00 749.32,482.00 752.00,482.00 754.68,482.00 757.36,482.00 760.04,482.00 762.72,482.00 765.40,482.00 768.08,482.00 770.76,482.00 773.44,482.00 776.12,482.00 778.80,482.00 781.48,482.00 784.16,482.00 786.84,482.00 789.52,482.00 792.20,482.00 794.88,482.00 797.56,482.00 800.24,482.00 802.92,482.00 805.60,482.00 808.28,482.00 810.96,482.00 813.64,482.00 816.32,482.00 819.00,482.00 821.68,482.00 824.36,482.00 827.04,482.00 829.72,482.00 832.40,482.00 835.08,482.00 837.76,482.00 840.44,482.00 843.12,482.00 845.80,482.00 848.48,482.00 851.16,482.00 853.84,482.00 856.52,482.00 859.20,482.00 861.88,482.00 864.56,482.00 867.24,482.00 869.92,482.00 872.60,482.00 875.28,482.00 877.96,482.00 880.64,482.00 883.32,482.00 886.00,482.00" fill="none" stroke="#ef7d00" stroke-width="2.5" stroke-linejoin="round"/>
<polyline points="84.68,239.04 87.36,239.04 90.04,239.04 92.72,239.04 95.40,239.04 98.08,239.04 100.76,239.04 103.44,239.04 106.12,239.04 108.80,239.04 111.48,239.04 114.16,239.04 116.84,239.04 119.52,239.04 122.20,239.04 124.88,239.04 127.56,239.04 130.24,239.04 132.92,239.04 135.60,239.04 138.28,239.04 140.96,239.04 143.64,239.04 146.32,239.04 149.00,239.04 151.68,239.04 154.36,239.04 157.04,239.04 159.72,239.04 162.40,239.04 165.08,239.04 167.76,239.04 170.44,239.04 173.12,239.04 175.80,239.04 178.48,239.04 181.16,239.04 183.84,239.04 186.52,239.04 189.20,239.04 191.88,239.04 194.56,239.04 197.24,239.04 199.92,239.04 202.60,239.04 205.28,239.04 207.96,239.04 210.64,239.04 213.32,239.04 216.00,239.04 218.68,239.04 221.36,239.04 224.04,239.04 226.72,239.04 229.40,239.04 232.08,239.04 234.76,239.04 237.44,239.04 240.12,239.04 242.80,239.04 245.48,239.04 248.16,239.04 250.84,239.04 253.52,239.04 256.20,239.04 258.88,239.04 261.56,239.04 264.24,239.04 266.92,239.04 269.60,239.04 272.28,239.04 274.96,239.04 277.64,239.04 280.32,239.04 283.00,239.04 285.68,239.04 288.36,239.04 291.04,239.04 293.72,239.04 296.40,239.04 299.08,236.00 301.76,232.96 304.44,229.93 307.12,226.89 309.80,223.85 312.48,220.81 315.16,217.78 317.84,214.74 320.52,211.70 323.20,208.67 325.88,205.63 328.56,202.59 331.24,199.56 333.92,196.52 336.60,193.48 339.28,190.44 341.96,187.41 344.64,184.37 347.32,181.33 350.00,178.30 352.68,175.26 355.36,172.22 358.04,169.19 360.72,166.15 363.40,163.11 366.08,160.07 368.76,157.04 371.44,154.00 374.12,150.96 376.80,147.93 379.48,144.89 382.16,141.85 384.84,138.81 387.52,135.78 390.20,132.74 392.88,129.70 395.56,126.67 398.24,123.63 400.92,120.59 403.60,117.56 406.28,117.56 408.96,117.56 411.64,117.56 414.32,117.56 417.00,117.56 419.68,117.56 422.36,117.56 425.04,117.56 427.72,117.56 430.40,117.56 433.08,117.56 435.76,117.56 438.44,117.56 441.12,117.56 443.80,117.56 446.48,117.56 449.16,117.56 451.84,117.56 454.52,117.56 457.20,117.56 459.88,117.56 462.56,117.56 465.24,117.56 467.92,117.56 470.60,117.56 473.28,117.56 475.96,117.56 478.64,117.56 481.32,117.56 484.00,117.56 486.68,117.56 489.36,117.56 492.04,117.56 494.72,117.56 497.40,117.56 500.08,117.56 502.76,117.56 505.44,117.56 508.12,117.56 510.80,117.56 513.48,117.56 516.16,117.56 518.84,117.56 521.52,117.56 524.20,117.56 526.88,117.56 529.56,117.56 532.24,117.56 534.92,117.56 537.60,117.56 540.28,117.56 542.96,117.56 545.64,117.56 548.32,117.56 551.00,117.56 553.68,117.56 556.36,117.56 559.04,117.56 561.72,117.56 564.40,117.56 567.08,117.56 569.76,117.56 572.44,117.56 575.12,117.56 577.80,117.56 580.48,117.56 583.16,117.56 585.84,117.56 588.52,117.56 591.20,117.56 593.88,117.56 596.56,117.56 599.24,117.56 601.92,117.56 604.60,117.56 607.28,117.56 609.96,117.56 612.64,117.56 615.32,117.56 618.00,117.56 620.68,117.56 623.36,117.56 626.04,117.56 628.72,117.56 631.40,117.56 634.08,117.56 636.76,117.56 639.44,117.56 642.12,117.56 644.80,117.56 647.48,117.56 650.16,117.56 652.84,117.56 655.52,117.56 658.20,117.56 660.88,117.56 663.56,117.56 666.24,117.56 668.92,117.56 671.60,117.56 674.28,117.56 676.96,117.56 679.64,117.56 682.32,117.56 685.00,117.56 687.68,117.56 690.36,117.56 693.04,117.56 695.72,117.56 698.40,117.56 701.08,117.56 703.76,117.56 706.44,117.56 709.12,117.56 711.80,117.56 714.48,117.56 717.16,117.56 719.84,117.56 722.52,117.56 725.20,117.56 727.88,117.56 730.56,117.56 733.24,117.56 735.92,117.56 738.60,117.56 741.28,117.56 743.96,117.56 746.64,117.56 749.32,117.56 752.00,117.56 754.68,117.56 757.36,117.56 760.04,117.56 762.72,117.56 765.40,117.56 768.08,117.56 770.76,117.56 773.44,117.56 776.12,117.56 778.80,117.56 781.48,117.56 784.16,117.56 786.84,117.56 789.52,117.56 792.20,117.56 794.88,117.56 797.56,117.56 800.24,117.56 802.92,117.56 805.60,117.56 808.28,117.56 810.96,117.56 813.64,117.56 816.32,117.56 819.00,117.56 821.68,117.56 824.36,117.56 827.04,117.56 829.72,117.56 832.40,117.56 835.08,117.56 837.76,117.56 840.44,117.56 843.12,117.56 845.80,117.56 848.48,117.56 851.16,117.56 853.84,117.56 856.52,117.56 859.20,117.56 861.88,117.56 864.56,117.56 867.24,117.56 869.92,117.56 872.60,117.56 875.28,117.56 877.96,117.56 880.64,117.56 883.32,117.56 886.00,117.56" fill="none" stroke="#2c9c69" stroke-width="2.5" stroke-linejoin="round"/>
<polyline points="84.68,478.96 87.36,475.93 90.04,472.89 92.72,469.85 95.40,466.81 98.08,463.78 100.76,460.74 103.44,457.70 106.12,454.67 108.80,451.63 111.48,448.59 114.16,445.56 116.84,442.52 119.52,439.48 122.20,436.44 124.88,433.41 127.56,430.37 130.24,427.33 132.92,424.30 135.60,421.26 138.28,418.22 140.96,415.19 143.64,412.15 146.32,409.11 149.00,406.07 151.68,403.04 154.36,400.00 157.04,396.96 159.72,393.93 162.40,390.89 165.08,387.85 167.76,384.81 170.44,381.78 173.12,378.74 175.80,375.70 178.48,372.67 181.16,369.63 183.84,366.59 186.52,363.56 189.20,360.52 191.88,357.48 194.56,354.44 197.24,351.41 199.92,348.37 202.60,345.33 205.28,342.30 207.96,339.26 210.64,336.22 213.32,333.19 216.00,330.15 218.68,327.11 221.36,324.07 224.04,321.04 226.72,318.00 229.40,314.96 232.08,311.93 234.76,308.89 237.44,305.85 240.12,302.81 242.80,299.78 245.48,296.74 248.16,293.70 250.84,290.67 253.52,287.63 256.20,284.59 258.88,281.56 261.56,278.52 264.24,275.48 266.92,272.44 269.60,269.41 272.28,266.37 274.96,263.33 277.64,260.30 280.32,257.26 283.00,254.22 285.68,251.19 288.36,248.15 291.04,245.11 293.72,242.07 296.40,239.04 299.08,236.00 301.76,232.96 304.44,229.93 307.12,226.89 309.80,223.85 312.48,220.81 315.16,217.78 317.84,214.74 320.52,211.70 323.20,208.67 325.88,205.63 328.56,202.59 331.24,199.56 333.92,196.52 336.60,193.48 339.28,193.48 341.96,193.48 344.64,193.48 347.32,193.48 350.00,193.48 352.68,193.48 355.36,193.48 358.04,193.48 360.72,193.48 363.40,193.48 366.08,193.48 368.76,193.48 371.44,193.48 374.12,193.48 376.80,193.48 379.48,193.48 382.16,193.48 384.84,193.48 387.52,193.48 390.20,193.48 392.88,193.48 395.56,193.48 398.24,193.48 400.92,193.48 403.60,193.48 406.28,193.48 408.96,193.48 411.64,193.48 414.32,193.48 417.00,193.48 419.68,193.48 422.36,193.48 425.04,193.48 427.72,193.48 430.40,193.48 433.08,193.48 435.76,193.48 438.44,193.48 441.12,193.48 443.80,193.48 446.48,193.48 449.16,193.48 451.84,193.48 454.52,193.48 457.20,193.48 459.88,193.48 462.56,193.48 465.24,193.48 467.92,193.48 470.60,193.48 473.28,193.48 475.96,193.48 478.64,193.48 481.32,193.48 484.00,193.48 486.68,193.48 489.36,193.48 492.04,193.48 494.72,193.48 497.40,193.48 500.08,193.48 502.76,193.48 505.44,193.48 508.12,193.48 510.80,193.48 513.48,193.48 516.16,193.48 518.84,193.48 521.52,193.48 524.20,193.48 526.88,193.48 529.56,193.48 532.24,193.48 534.92,193.48 537.60,193.48 540.28,193.48 542.96,193.48 545.64,193.48 548.32,193.48 551.00,193.48 553.68,193.48 556.36,193.48 559.04,193.48 561.72,193.48 564.40,193.48 567.08,193.48 569.76,193.48 572.44,193.48 575.12,193.48 577.80,193.48 580.48,193.48 583.16,193.48 585.84,193.48 588.52,193.48 591.20,193.48 593.88,193.48 596.56,193.48 599.24,193.48 601.92,193.48 604.60,193.48 607.28,193.48 609.96,193.48 612.64,193.48 615.32,193.48 618.00,193.48 620.68,193.48 623.36,193.48 626.04,193.48 628.72,193.48 631.40,193.48 634.08,193.48 636.76,193.48 639.44,193.48 642.12,193.48 644.80,193.48 647.48,193.48 650.16,193.48 652.84,193.48 655.52,193.48 658.20,193.48 660.88,193.48 663.56,193.48 666.24,193.48 668.92,193.48 671.60,193.48 674.28,193.48 676.96,193.48 679.64,193.48 682.32,193.48 685.00,193.48 687.68,193.48 690.36,193.48 693.04,193.48 695.72,193.48 698.40,193.48 701.08,193.48 703.76,193.48 706.44,193.48 709.12,193.48 711.80,193.48 714.48,193.48 717.16,193.48 719.84,193.48 722.52,193.48 725.20,193.48 727.88,193.48 730.56,193.48 733.24,193.48 735.92,193.48 738.60,193.48 741.28,193.48 743.96,193.48 746.64,193.48 749.32,193.48 752.00,193.48 754.68,193.48 757.36,193.48 760.04,193.48 762.72,193.48 765.40,193.48 768.08,193.48 770.76,193.48 773.44,193.48 776.12,193.48 778.80,193.48 781.48,193.48 784.16,193.48 786.84,193.48 789.52,193.48 792.20,193.48 794.88,193.48 797.56,193.48 800.24,193.48 802.92,193.48 805.60,193.48 808.28,193.48 810.96,193.48 813.64,193.48 816.32,193.48 819.00,193.48 821.68,193.48 824.36,193.48 827.04,193.48 829.72,193.48 832.40,193.48 835.08,193.48 837.76,193.48 840.44,193.48 843.12,193.48 845.80,193.48 848.48,193.48 851.16,193.48 853.84,193.48 856.52,193.48 859.20,193.48 861.88,193.48 864.56,193.48 867.24,193.48 869.92,193.48 872.60,193.48 875.28,193.48 877.96,193.48 880.64,193.48 883.32,193.48 886.00,193.48" fill="none" stroke="#2f80ed" stroke-width="2.5" stroke-linejoin="round" stroke-dasharray="7 5"/>
<polyline points="84.68,478.96 87.36,475.93 90.04,472.89 92.72,469.85 95.40,466.81 98.08,463.78 100.76,460.74 103.44,457.70 106.12,454.67 108.80,451.63 111.48,448.59 114.16,445.56 116.84,442.52 119.52,439.48 122.20,436.44 124.88,433.41 127.56,430.37 130.24,427.33 132.92,424.30 135.60,421.26 138.28,418.22 140.96,415.19 143.64,412.15 146.32,409.11 149.00,406.07 151.68,403.04 154.36,400.00 157.04,396.96 159.72,393.93 162.40,390.89 165.08,387.85 167.76,384.81 170.44,381.78 173.12,378.74 175.80,375.70 178.48,375.70 181.16,375.70 183.84,375.70 186.52,375.70 189.20,375.70 191.88,375.70 194.56,375.70 197.24,375.70 199.92,375.70 202.60,375.70 205.28,375.70 207.96,375.70 210.64,375.70 213.32,375.70 216.00,375.70 218.68,375.70 221.36,375.70 224.04,375.70 226.72,375.70 229.40,375.70 232.08,375.70 234.76,375.70 237.44,375.70 240.12,375.70 242.80,375.70 245.48,375.70 248.16,375.70 250.84,375.70 253.52,375.70 256.20,375.70 258.88,375.70 261.56,375.70 264.24,375.70 266.92,375.70 269.60,375.70 272.28,375.70 274.96,375.70 277.64,375.70 280.32,375.70 283.00,375.70 285.68,375.70 288.36,375.70 291.04,375.70 293.72,375.70 296.40,375.70 299.08,375.70 301.76,375.70 304.44,375.70 307.12,375.70 309.80,375.70 312.48,375.70 315.16,375.70 317.84,375.70 320.52,375.70 323.20,375.70 325.88,375.70 328.56,375.70 331.24,375.70 333.92,375.70 336.60,375.70 339.28,375.70 341.96,375.70 344.64,375.70 347.32,375.70 350.00,375.70 352.68,375.70 355.36,375.70 358.04,375.70 360.72,375.70 363.40,375.70 366.08,375.70 368.76,375.70 371.44,375.70 374.12,375.70 376.80,375.70 379.48,375.70 382.16,375.70 384.84,375.70 387.52,375.70 390.20,375.70 392.88,375.70 395.56,375.70 398.24,375.70 400.92,375.70 403.60,375.70 406.28,375.70 408.96,375.70 411.64,375.70 414.32,375.70 417.00,375.70 419.68,375.70 422.36,375.70 425.04,375.70 427.72,375.70 430.40,375.70 433.08,375.70 435.76,375.70 438.44,375.70 441.12,375.70 443.80,375.70 446.48,375.70 449.16,375.70 451.84,375.70 454.52,375.70 457.20,375.70 459.88,375.70 462.56,375.70 465.24,375.70 467.92,375.70 470.60,375.70 473.28,375.70 475.96,375.70 478.64,375.70 481.32,375.70 484.00,375.70 486.68,375.70 489.36,375.70 492.04,375.70 494.72,375.70 497.40,375.70 500.08,375.70 502.76,375.70 505.44,375.70 508.12,375.70 510.80,375.70 513.48,375.70 516.16,375.70 518.84,375.70 521.52,375.70 524.20,375.70 526.88,375.70 529.56,375.70 532.24,375.70 534.92,375.70 537.60,375.70 540.28,375.70 542.96,375.70 545.64,375.70 548.32,375.70 551.00,375.70 553.68,375.70 556.36,375.70 559.04,375.70 561.72,375.70 564.40,375.70 567.08,375.70 569.76,375.70 572.44,375.70 575.12,375.70 577.80,375.70 580.48,375.70 583.16,375.70 585.84,375.70 588.52,375.70 591.20,375.70 593.88,375.70 596.56,375.70 599.24,375.70 601.92,375.70 604.60,375.70 607.28,375.70 609.96,375.70 612.64,375.70 615.32,375.70 618.00,375.70 620.68,375.70 623.36,375.70 626.04,375.70 628.72,375.70 631.40,375.70 634.08,375.70 636.76,375.70 639.44,375.70 642.12,375.70 644.80,375.70 647.48,375.70 650.16,375.70 652.84,375.70 655.52,375.70 658.20,375.70 660.88,375.70 663.56,375.70 666.24,375.70 668.92,375.70 671.60,375.70 674.28,375.70 676.96,375.70 679.64,375.70 682.32,375.70 685.00,375.70 687.68,375.70 690.36,375.70 693.04,375.70 695.72,375.70 698.40,375.70 701.08,375.70 703.76,375.70 706.44,375.70 709.12,375.70 711.80,375.70 714.48,375.70 717.16,375.70 719.84,375.70 722.52,375.70 725.20,375.70 727.88,375.70 730.56,375.70 733.24,375.70 735.92,375.70 738.60,375.70 741.28,375.70 743.96,375.70 746.64,375.70 749.32,375.70 752.00,375.70 754.68,375.70 757.36,375.70 760.04,375.70 762.72,375.70 765.40,375.70 768.08,375.70 770.76,375.70 773.44,375.70 776.12,375.70 778.80,375.70 781.48,375.70 784.16,375.70 786.84,375.70 789.52,375.70 792.20,375.70 794.88,375.70 797.56,375.70 800.24,375.70 802.92,375.70 805.60,375.70 808.28,375.70 810.96,375.70 813.64,375.70 816.32,375.70 819.00,375.70 821.68,375.70 824.36,375.70 827.04,375.70 829.72,375.70 832.40,375.70 835.08,375.70 837.76,375.70 840.44,375.70 843.12,375.70 845.80,375.70 848.48,375.70 851.16,375.70 853.84,375.70 856.52,375.70 859.20,375.70 861.88,375.70 864.56,375.70 867.24,375.70 869.92,375.70 872.60,375.70 875.28,375.70 877.96,375.70 880.64,375.70 883.32,375.70 886.00,375.70" fill="none" stroke="#d64545" stroke-width="2.5" stroke-linejoin="round" stroke-dasharray="7 5"/>
<line x1="636" y1="96" x2="670" y2="96" stroke="#ef7d00" stroke-width="3"/>
<text class="legend" x="680" y="100">PPO/GRPO fixed clip</text>
<line x1="636" y1="120" x2="670" y2="120" stroke="#2c9c69" stroke-width="3"/>
<text class="legend" x="680" y="124">CISPO detached clipped weight</text>
<line x1="636" y1="144" x2="670" y2="144" stroke="#2f80ed" stroke-width="3" stroke-dasharray="7 5"/>
<text class="legend" x="680" y="148">P3O ESS cap, fresh ESS=0.95</text>
<line x1="636" y1="168" x2="670" y2="168" stroke="#d64545" stroke-width="3" stroke-dasharray="7 5"/>
<text class="legend" x="680" y="172">P3O ESS cap, stale ESS=0.35</text>
<text class="label" x="484.0" y="536" text-anchor="middle">policy ratio r</text>
<text class="label" x="22" y="277.0" transform="rotate(-90 22 277.0)" text-anchor="middle">effective score/update coefficient</text>
</svg>
