<svg xmlns="http://www.w3.org/2000/svg" width="920" height="560" viewBox="0 0 920 560">
<style>
text { font-family: -apple-system, BlinkMacSystemFont, 'Segoe UI', sans-serif; fill: #1f2933; }
.title { font-size: 22px; font-weight: 700; }
.label { font-size: 13px; }
.small { font-size: 11px; fill: #52616b; }
.axis { stroke: #2f3a45; stroke-width: 1.2; }
.grid { stroke: #d8dee6; stroke-width: 1; }
.legend { font-size: 12px; }
</style>
<text class="title" x="82" y="38">P3O uses one batch statistic for two controls</text>
<line class="axis" x1="82" y1="482" x2="886" y2="482"/>
<line class="axis" x1="82" y1="72" x2="82" y2="482"/>
<line class="grid" x1="82" y1="482.00" x2="886" y2="482.00"/>
<text class="small" x="72" y="486.00" text-anchor="end">0.00</text>
<line class="grid" x1="82" y1="400.00" x2="886" y2="400.00"/>
<text class="small" x="72" y="404.00" text-anchor="end">0.20</text>
<line class="grid" x1="82" y1="318.00" x2="886" y2="318.00"/>
<text class="small" x="72" y="322.00" text-anchor="end">0.40</text>
<line class="grid" x1="82" y1="236.00" x2="886" y2="236.00"/>
<text class="small" x="72" y="240.00" text-anchor="end">0.60</text>
<line class="grid" x1="82" y1="154.00" x2="886" y2="154.00"/>
<text class="small" x="72" y="158.00" text-anchor="end">0.80</text>
<line class="grid" x1="82" y1="72.00" x2="886" y2="72.00"/>
<text class="small" x="72" y="76.00" text-anchor="end">1.00</text>
<line class="grid" x1="82.00" y1="72" x2="82.00" y2="482"/>
<text class="small" x="82.00" y="505" text-anchor="middle">0.0</text>
<line class="grid" x1="216.00" y1="72" x2="216.00" y2="482"/>
<text class="small" x="216.00" y="505" text-anchor="middle">0.2</text>
<line class="grid" x1="350.00" y1="72" x2="350.00" y2="482"/>
<text class="small" x="350.00" y="505" text-anchor="middle">0.3</text>
<line class="grid" x1="484.00" y1="72" x2="484.00" y2="482"/>
<text class="small" x="484.00" y="505" text-anchor="middle">0.5</text>
<line class="grid" x1="618.00" y1="72" x2="618.00" y2="482"/>
<text class="small" x="618.00" y="505" text-anchor="middle">0.7</text>
<line class="grid" x1="752.00" y1="72" x2="752.00" y2="482"/>
<text class="small" x="752.00" y="505" text-anchor="middle">0.8</text>
<line class="grid" x1="886.00" y1="72" x2="886.00" y2="482"/>
<text class="small" x="886.00" y="505" text-anchor="middle">1.0</text>
<polyline points="90.04,477.90 98.08,473.80 106.12,469.70 114.16,465.60 122.20,461.50 130.24,457.40 138.28,453.30 146.32,449.20 154.36,445.10 162.40,441.00 170.44,436.90 178.48,432.80 186.52,428.70 194.56,424.60 202.60,420.50 210.64,416.40 218.68,412.30 226.72,408.20 234.76,404.10 242.80,400.00 250.84,395.90 258.88,391.80 266.92,387.70 274.96,383.60 283.00,379.50 291.04,375.40 299.08,371.30 307.12,367.20 315.16,363.10 323.20,359.00 331.24,354.90 339.28,350.80 347.32,346.70 355.36,342.60 363.40,338.50 371.44,334.40 379.48,330.30 387.52,326.20 395.56,322.10 403.60,318.00 411.64,313.90 419.68,309.80 427.72,305.70 435.76,301.60 443.80,297.50 451.84,293.40 459.88,289.30 467.92,285.20 475.96,281.10 484.00,277.00 492.04,272.90 500.08,268.80 508.12,264.70 516.16,260.60 524.20,256.50 532.24,252.40 540.28,248.30 548.32,244.20 556.36,240.10 564.40,236.00 572.44,231.90 580.48,227.80 588.52,223.70 596.56,219.60 604.60,215.50 612.64,211.40 620.68,207.30 628.72,203.20 636.76,199.10 644.80,195.00 652.84,190.90 660.88,186.80 668.92,182.70 676.96,178.60 685.00,174.50 693.04,170.40 701.08,166.30 709.12,162.20 717.16,158.10 725.20,154.00 733.24,149.90 741.28,145.80 749.32,141.70 757.36,137.60 765.40,133.50 773.44,129.40 781.48,125.30 789.52,121.20 797.56,117.10 805.60,113.00 813.64,108.90 821.68,104.80 829.72,100.70 837.76,96.60 845.80,92.50 853.84,88.40 861.88,84.30 869.92,80.20 877.96,76.10 886.00,72.00" fill="none" stroke="#2f80ed" stroke-width="2.5" stroke-linejoin="round"/>
<polyline points="90.04,76.10 98.08,80.20 106.12,84.30 114.16,88.40 122.20,92.50 130.24,96.60 138.28,100.70 146.32,104.80 154.36,108.90 162.40,113.00 170.44,117.10 178.48,121.20 186.52,125.30 194.56,129.40 202.60,133.50 210.64,137.60 218.68,141.70 226.72,145.80 234.76,149.90 242.80,154.00 250.84,158.10 258.88,162.20 266.92,166.30 274.96,170.40 283.00,174.50 291.04,178.60 299.08,182.70 307.12,186.80 315.16,190.90 323.20,195.00 331.24,199.10 339.28,203.20 347.32,207.30 355.36,211.40 363.40,215.50 371.44,219.60 379.48,223.70 387.52,227.80 395.56,231.90 403.60,236.00 411.64,240.10 419.68,244.20 427.72,248.30 435.76,252.40 443.80,256.50 451.84,260.60 459.88,264.70 467.92,268.80 475.96,272.90 484.00,277.00 492.04,281.10 500.08,285.20 508.12,289.30 516.16,293.40 524.20,297.50 532.24,301.60 540.28,305.70 548.32,309.80 556.36,313.90 564.40,318.00 572.44,322.10 580.48,326.20 588.52,330.30 596.56,334.40 604.60,338.50 612.64,342.60 620.68,346.70 628.72,350.80 636.76,354.90 644.80,359.00 652.84,363.10 660.88,367.20 668.92,371.30 676.96,375.40 685.00,379.50 693.04,383.60 701.08,387.70 709.12,391.80 717.16,395.90 725.20,400.00 733.24,404.10 741.28,408.20 749.32,412.30 757.36,416.40 765.40,420.50 773.44,424.60 781.48,428.70 789.52,432.80 797.56,436.90 805.60,441.00 813.64,445.10 821.68,449.20 829.72,453.30 837.76,457.40 845.80,461.50 853.84,465.60 861.88,469.70 869.92,473.80 877.96,477.90 886.00,482.00" fill="none" stroke="#d64545" stroke-width="2.5" stroke-linejoin="round"/>
<line x1="636" y1="96" x2="670" y2="96" stroke="#2f80ed" stroke-width="3"/>
<text class="legend" x="680" y="100">score-function cap = ESS</text>
<line x1="636" y1="120" x2="670" y2="120" stroke="#d64545" stroke-width="3"/>
<text class="legend" x="680" y="124">behavioral KL weight = 1 - ESS</text>
<text class="label" x="484.0" y="536" text-anchor="middle">normalized ESS of current batch</text>
<text class="label" x="22" y="277.0" transform="rotate(-90 22 277.0)" text-anchor="middle">control strength</text>
</svg>
